<svg width="1688" height="1688" viewBox="0 0 1688 1688" fill="none" xmlns="http://www.w3.org/2000/svg">
<g opacity="0.53">
<path d="M753.136 284.496C630.137 294 598.637 481.5 753.136 508.496C904.137 508.496 923.137 290 753.136 284.496Z" fill="black"/>
<path d="M1032.03 276C909.032 285.504 877.532 473.003 1032.03 500C1183.03 500 1202.03 281.503 1032.03 276Z" fill="black"/>
<path d="M964.636 538.5C566.637 633 870.137 1064 369.137 1171C335.137 1178.26 296.137 1267.5 394.137 1286C974.637 1128.5 702.137 711 989.636 651.5C1017.14 669.5 974.137 808.357 1116.34 845.6C1170.64 859.821 1359.27 817.418 1340.74 726.7C1291.14 611.5 1213.64 757 1130.34 727.8C1093.14 714.76 1150.64 524.8 964.636 538.5Z" fill="black"/>
<path d="M816.637 549.8C816.637 549.8 698.09 536 590.237 639C545.637 674.5 414.825 895 517.137 935.6C609.637 953.5 590.237 857.908 609.637 811.4C647.137 721.5 703.137 695 703.137 695C738.137 601.5 816.637 549.8 816.637 549.8Z" fill="black"/>
<path d="M968.637 928C832.889 945.163 797.128 1095.58 716.837 1182.4C631.137 1286 543.858 1272.44 563.137 1344.3C644.637 1501 879.883 1168.5 916.637 1096.5C1023.18 928 1189.32 1182.4 1245.14 1357C1269.75 1433.99 1381.43 1398 1351.94 1310.5C1299.59 1155.21 1174.45 903.787 968.637 928Z" fill="black"/>
<path d="M971.637 1100.5L911.137 1193.9C1034.14 1306 1032.75 1450.9 1118.74 1403.3C1221.14 1346.61 1010.14 1134 971.637 1100.5Z" fill="black"/>
</g>
</svg>
